# xmcd
#
# Track frame offsets: 
#        150
#        19350
#        41100
#        61350
#        79500
#        98850
#        121500
#        137250
#        155400
#        176025
#        195675
#        214050
#        235200
#
# Disc length: 3383 seconds
#
# Revision: 0
# Processed by: cddbd v1.5.2PL0 Copyright (c) Steve Scherf et al.
# Submitted via: ExactAudioCopy v0.99pb5
#
DISCID=a80d350d
DTITLE=降央卓瑪 - 中音女皇（6N純銀SQCD）
DYEAR=2014
DGENRE=Country
TTITLE0=鴻雁
TTITLE1=卓瑪
TTITLE2=走天涯
TTITLE3=草原情
TTITLE4=天堂草原
TTITLE5=西海情歌
TTITLE6=陪你一起看草原
TTITLE7=我和草原有個約定
TTITLE8=呼倫貝爾大草原
TTITLE9=姑娘我愛你
TTITLE10=敖包相會
TTITLE11=天邊
TTITLE12=故鄉
EXTD=
EXTT0=
EXTT1=
EXTT2=
EXTT3=
EXTT4=
EXTT5=
EXTT6=
EXTT7=
EXTT8=
EXTT9=
EXTT10=
EXTT11=
EXTT12=
PLAYORDER=
